<svg width="34" height="34" viewBox="0 0 34 34" fill="none" xmlns="http://www.w3.org/2000/svg">
<g clip-path="url(#clip0_15_99)">
<path d="M26.9167 0H7.08333C5.20541 0.00224946 3.40504 0.749249 2.07714 2.07714C0.749249 3.40504 0.00224946 5.20541 0 7.08333L0 26.9167C0.00224946 28.7946 0.749249 30.595 2.07714 31.9229C3.40504 33.2508 5.20541 33.9977 7.08333 34H26.9167C28.7946 33.9977 30.595 33.2508 31.9229 31.9229C33.2508 30.595 33.9977 28.7946 34 26.9167V7.08333C33.9977 5.20541 33.2508 3.40504 31.9229 2.07714C30.595 0.749249 28.7946 0.00224946 26.9167 0ZM31.1667 26.9167C31.1667 28.0438 30.7189 29.1248 29.9219 29.9219C29.1248 30.7189 28.0438 31.1667 26.9167 31.1667H7.08333C5.95616 31.1667 4.87516 30.7189 4.07813 29.9219C3.2811 29.1248 2.83333 28.0438 2.83333 26.9167V7.08333C2.83333 5.95616 3.2811 4.87516 4.07813 4.07813C4.87516 3.2811 5.95616 2.83333 7.08333 2.83333H26.9167C28.0438 2.83333 29.1248 3.2811 29.9219 4.07813C30.7189 4.87516 31.1667 5.95616 31.1667 7.08333V26.9167Z" fill="#4AD894"/>
<path d="M13.2217 22.5519L7.66978 17C7.40411 16.7344 7.04384 16.5852 6.66819 16.5852C6.29255 16.5852 5.93228 16.7344 5.66661 17C5.40103 17.2656 5.25183 17.6259 5.25183 18.0016C5.25183 18.3772 5.40103 18.7375 5.66661 19.0032L11.2185 24.5551C11.4816 24.8183 11.794 25.0271 12.1379 25.1696C12.4817 25.312 12.8502 25.3853 13.2224 25.3853C13.5946 25.3853 13.9631 25.312 14.3069 25.1696C14.6508 25.0271 14.9632 24.8183 15.2263 24.5551L28.3333 11.4481C28.5989 11.1824 28.7481 10.8221 28.7481 10.4465C28.7481 10.0708 28.5989 9.71057 28.3333 9.4449C28.0676 9.17932 27.7073 9.03012 27.3317 9.03012C26.956 9.03012 26.5958 9.17932 26.3301 9.4449L13.2217 22.5519Z" fill="#4AD894"/>
</g>
<defs>
<clipPath id="clip0_15_99">
<rect width="34" height="34" fill="white"/>
</clipPath>
</defs>
</svg>
