<svg width="24" height="24" viewBox="0 0 24 24" fill="none" xmlns="http://www.w3.org/2000/svg">
<g clip-path="url(#clip0_14_10)">
<path d="M22 15H9.02L6.02 12L9.02 9H22C23.1 9 24 9.9 24 11V13C24 14.1 23.1 15 22 15ZM9.85 13H22V11H9.85L8.85 12L9.85 13ZM19 6H9.02L6.02 3L9.02 0H19C20.1 0 21 0.9 21 2V4C21 5.1 20.1 6 19 6ZM9.85 4H19V2H9.85L8.85 3L9.85 4ZM17 24H9.02L6.02 21L9.02 18H17C18.1 18 19 18.9 19 20V22C19 23.1 18.1 24 17 24ZM9.85 22H17V20H9.85L8.85 21L9.85 22ZM2 19C0.9 19 0 19.9 0 21C0 22.1 0.9 23 2 23C3.1 23 4 22.1 4 21C4 19.9 3.1 19 2 19ZM2 10C0.9 10 0 10.9 0 12C0 13.1 0.9 14 2 14C3.1 14 4 13.1 4 12C4 10.9 3.1 10 2 10ZM2 1C0.9 1 0 1.9 0 3C0 4.1 0.9 5 2 5C3.1 5 4 4.1 4 3C4 1.9 3.1 1 2 1Z" fill="#B5B5D7"/>
</g>
<defs>
<clipPath id="clip0_14_10">
<rect width="24" height="24" fill="white"/>
</clipPath>
</defs>
</svg>
