<svg width="12" height="12" viewBox="0 0 12 12" fill="none" xmlns="http://www.w3.org/2000/svg">
<g clip-path="url(#clip0_19_290)">
<path d="M11.1214 5.0105H0.878418L5.07842 0.418999C5.19851 0.295818 5.3421 0.197985 5.50069 0.131294C5.65927 0.0646021 5.82962 0.0304072 6.00166 0.0307335C6.17369 0.0310599 6.34392 0.0659009 6.50224 0.133194C6.66057 0.200487 6.80379 0.298863 6.92342 0.422499L11.1214 5.0105Z" fill="#797B7C"/>
<path d="M5.99992 12.0055C5.82548 12.0053 5.65302 11.9685 5.49375 11.8973C5.33447 11.8262 5.19195 11.7223 5.07542 11.5925L0.878418 7.00549H11.1214L6.92142 11.596C6.80515 11.7251 6.66301 11.8283 6.50425 11.8988C6.34549 11.9694 6.17365 12.0057 5.99992 12.0055Z" fill="#797B7C"/>
</g>
<defs>
<clipPath id="clip0_19_290">
<rect width="12" height="12" fill="white"/>
</clipPath>
</defs>
</svg>
